<svg height="511pt" viewBox="-31 0 511 511.99987" width="511pt" xmlns="http://www.w3.org/2000/svg"><path d="m448.300781 106.296875c-1.59375-2.660156-4.652343-4.070313-7.707031-3.5625-3.167969.53125-6.34375.800781-9.449219.800781-31.285156 0-56.738281-25.453125-56.738281-56.738281 0-12.65625 4.09375-24.644531 11.835938-34.65625 1.894531-2.453125 2.09375-5.816406.503906-8.472656-1.59375-2.660157-4.648438-4.082031-7.707032-3.5625-34.324218 5.753906-59.320312 34.972656-59.835937 69.703125-28.144531-14.28125-59.351563-22.003906-91.121094-22.480469l-21.921875-21.921875c-2.941406-2.941406-7.710937-2.941406-10.652344 0-2.941406 2.941406-2.941406 7.710938 0 10.652344l11.980469 11.976562c-106.757812 8.894532-190.921875 98.613282-190.921875 207.632813 0 43.515625 13.0625 84.6875 37.882813 119.835937l-17.179688-2.867187c-4.046875-.671875-7.996093 2.148437-8.667969 6.191406l-4.191406 25.160156-20.757812 14.824219c-3.382813 2.417969-4.167969 7.121094-1.75 10.503906l14.824218 20.753906-4.191406 25.160157c-.675781 4.046875 2.148438 7.992187 6.191406 8.667969l25.15625 4.191406 14.824219 20.753906c1.472657 2.058594 3.785157 3.15625 6.136719 3.15625 1.515625 0 3.042969-.457031 4.371094-1.402344l20.753906-14.828125 25.160156 4.195313c4.101563.6875 7.980469-2.089844 8.664063-6.191406l4.195312-25.15625 20.753907-14.824219c1.164062-.832031 2.007812-1.933594 2.535156-3.15625 22.46875 8.519531 46.09375 12.996093 70.496094 13.351562l21.9375 21.941407c3.0625 3.058593 8.234374 2.855468 11.050781-.433594 2.523437-2.949219 2.34375-7.476563-.398438-10.21875l-11.980469-11.980469c106.757813-8.894531 190.917969-98.613281 190.917969-207.628906 0-40.703125-11.589843-79.714844-33.601562-113.496094 18.984375-2.285156 36.175781-11.984375 48.097656-27.402344 1.894531-2.453125 2.09375-5.8125.503906-8.472656zm-331.605469 351.875c-1.625 1.160156-2.726562 2.917969-3.050781 4.890625l-3.46875 20.804688-20.808593-3.464844c-1.972657-.332032-3.988282.136718-5.613282 1.296875l-17.164062 12.261719-12.261719-17.164063c-1.160156-1.625-2.921875-2.722656-4.890625-3.050781l-20.808594-3.46875 3.46875-20.804688c.328125-1.972656-.140625-3.992187-1.300781-5.617187l-12.261719-17.164063 17.167969-12.261718c1.625-1.160157 2.722656-2.917969 3.050781-4.890626l3.464844-20.804687 20.808594 3.46875c1.972656.328125 3.992187-.140625 5.617187-1.300781l17.164063-12.261719 12.257812 17.164063c1.164063 1.625 2.921875 2.722656 4.894532 3.050781l20.804687 3.46875-3.46875 20.808593c-.328125 1.96875.140625 3.988282 1.300781 5.613282l12.261719 17.164062zm127.367188-10.144531 10.296875-10.296875c2.941406-2.945313 2.941406-7.710938 0-10.652344s-7.707031-2.941406-10.648437 0l-21.851563 21.851563c-28.378906-.433594-55.617187-6.867188-81.027344-19.167969l-5.164062-7.230469 4.195312-25.160156c.683594-4.101563-2.089843-7.980469-6.191406-8.667969l-25.160156-4.191406-14.820313-20.753907c-2.417968-3.382812-7.125-4.167968-10.507812-1.75l-13.105469 9.359376c-25.167969-33.570313-38.445313-73.4375-38.445313-115.699219 0-100.132813 76.53125-182.722657 174.175782-192.359375l-10.300782 10.296875c-2.742187 2.742187-2.921874 7.273437-.398437 10.21875 2.816406 3.292969 7.988281 3.496093 11.050781.433593l21.84375-21.84375c32.816406.519532 64.96875 9.347657 93.261719 25.640626 6.960937 28.289062 30.734375 50.023437 60.078125 53.976562.039062.0625.074219.125.117188.183594 24.0625 33.136718 36.777343 72.367187 36.777343 113.453125 0 100.132812-76.53125 182.722656-174.175781 192.359375zm146.914062-320.390625c-31.285156 0-56.734374-25.453125-56.734374-56.738281 0-21.503907 11.878906-40.4375 29.925781-50.050782-3.183594 8.183594-4.824219 16.933594-4.824219 25.949219 0 36.675781 27.636719 67.011719 63.175781 71.285156-9.203125 6.183594-20.09375 9.554688-31.542969 9.554688zm0 0"/><path d="m76.199219 396.636719c-21.871094 0-39.667969 17.792969-39.667969 39.664062 0 21.871094 17.796875 39.664063 39.667969 39.664063 21.871093 0 39.664062-17.792969 39.664062-39.664063 0-21.871093-17.792969-39.664062-39.664062-39.664062zm0 64.265625c-13.566407 0-24.605469-11.035156-24.605469-24.601563 0-13.566406 11.039062-24.601562 24.605469-24.601562 13.566406 0 24.601562 11.035156 24.601562 24.601562 0 13.566407-11.035156 24.601563-24.601562 24.601563zm0 0"/><path d="m224.933594 127.636719c-70.597656 0-128.03125 57.433593-128.03125 128.03125 0 70.597656 57.433594 128.03125 128.03125 128.03125 12.191406 0 24.246094-1.710938 35.84375-5.085938 3.992187-1.164062 6.289062-5.339843 5.125-9.335937-1.164063-3.992188-5.335938-6.285156-9.339844-5.125-10.222656 2.976562-20.863281 4.484375-31.628906 4.484375-22.414063 0-43.320313-6.558594-60.90625-17.863281l16.074218-8.035157c2.550782-1.277343 4.160157-3.882812 4.160157-6.734375v-47.273437l7.808593-31.234375c.550782-2.199219.082032-4.53125-1.28125-6.347656l-24.097656-32.132813c-.703125-.933594-1.613281-1.695313-2.65625-2.21875l-32.136718-16.066406c-1.046876-.523438-2.199219-.792969-3.367188-.792969h-1.835938c17.664063-31.007812 49.570313-52.890625 86.757813-56.660156l-2.578125 3.4375c-.484375.648437-.863281 1.367187-1.121094 2.136718l-16.066406 48.199219c-.0625.1875-.113281.371094-.160156.558594l-8.035156 32.132813c-.433594 1.742187-.234376 3.585937.570312 5.195312l24.101562 48.199219c1.277344 2.550781 3.882813 4.164062 6.734376 4.164062h22.324218l29.0625 14.53125 29 36.25-.847656 5.078125c-3.753906 3.058594-7.734375 5.902344-11.925781 8.511719-3.535157 2.195313-4.617188 6.839844-2.417969 10.371094 2.195312 3.535156 6.839844 4.617187 10.371094 2.417969 37.882812-23.5625 60.5-64.230469 60.5-108.792969.003906-70.597657-57.433594-128.03125-128.03125-128.03125zm-95.898438 180.5-2.929687 2.199219c-7.855469-14.140626-12.757813-30.128907-13.882813-47.136719h10.882813l5.929687 17.789062zm-2.277344-93.136719 28.953126 14.472656 20.882812 27.847656-7.164062 28.652344c-.152344.601563-.226563 1.214844-.226563 1.828125v43.546875l-18.613281 9.304688c-6.03125-5.285156-11.5-11.191406-16.296875-17.632813l6.792969-5.09375c1.894531-1.421875 3.011718-3.65625 3.011718-6.023437v-32.132813c0-.8125-.128906-1.617187-.386718-2.382812l-8.035157-24.101563c-1.023437-3.074218-3.902343-5.148437-7.144531-5.148437h-16.308594c.765625-11.609375 3.292969-22.742188 7.320313-33.136719zm183.335938 114.976562-31.078125-38.847656c-.679687-.847656-1.539063-1.542968-2.511719-2.03125l-32.132812-16.066406c-1.046875-.523438-2.199219-.792969-3.371094-.792969h-19.445312l-20.769532-41.546875 7.285156-29.148437 15.589844-46.765625 8.859375-11.816406c25.417969 1.691406 48.5625 11.828124 66.644531 27.621093l-36.707031 13.765625c-1.984375.746094-3.5625 2.289063-4.347656 4.253906l-16.066406 40.167969c-1.546875 3.863281.332031 8.246094 4.195312 9.789063l37.507813 15.003906 22.820312 45.640625c1.015625 2.027344 2.890625 3.492187 5.101563 3.984375l14.308593 3.179688c-4.253906 8.488281-9.582031 16.417968-15.882812 23.609374zm21.789062-37.726562-13.445312-2.988281-22.5-44.996094c-.824219-1.652344-2.226562-2.941406-3.9375-3.625l-33.175781-13.269531 12.035156-30.085938 39.917969-14.96875c16.902344 19.75 27.128906 45.378906 27.128906 73.351563 0 12.683593-2.089844 25.003906-6.023438 36.582031zm0 0"/></svg>