<svg class="myIcon" viewBox="0 0 640 640" xmlns="http://www.w3.org/2000/svg" xmlns:xlink="http://www.w3.org/1999/xlink">
    <symbol  id="myDot" width="10" height="10" viewBox="0 0 640 640">
        <path
            fill="black"
            d="M143 147a10 10 0 0 0 14-14L97 73a10 10 0 0 0-14 14zm0 0M100 300c0-6-4-10-10-10H10a10 10 0 1 0 0 20h80c6 0 10-4 10-10zm0 0M143 453l-60 60a10 10 0 1 0 14 14l60-60a10 10 0 0 0-14-14zm0 0M554 354c-18 11-39 17-61 17-65-1-118-55-117-121 0-50 31-96 78-114a10 10 0 0 0 0-19c-19-5-38-8-58-7-30 0-60 8-86 22V10a10 10 0 1 0-20 0v101a190 190 0 0 0 0 378v101a10 10 0 0 0 20 0V468a182 182 0 0 0 259-103 10 10 0 0 0-15-11zm-414-54c0-86 65-159 150-169v338c-85-10-150-83-150-169zm256 170c-30 0-60-9-86-25V155c26-16 56-25 86-25l24 1c-40 27-64 71-64 119a139 139 0 0 0 184 133c-28 54-83 87-144 87zm0 0"/>
        <path
            d="M599 213c-1-4-4-6-8-7l-36-6-16-34c-2-4-5-6-9-6s-7 2-9 6l-16 34-37 6a10 10 0 0 0-5 17l26 27-6 38a10 10 0 0 0 15 11l32-18 32 18a10 10 0 0 0 13-3c2-2 2-5 2-8l-6-38 26-27c3-3 4-7 2-10zm-46 27c-2 2-3 5-3 8l4 23-19-10c-3-2-7-2-10 0l-19 10 4-23c0-3-1-6-3-8l-16-17 22-4c3 0 6-2 8-5l9-20 9 20c2 3 5 5 8 5l22 4zm0 0"/>
    </symbol>
    <use xlink:href="#myDot" />
</svg>
