<svg height="393pt" viewBox="-28 0 393 393" width="393pt" xmlns="http://www.w3.org/2000/svg"><path d="m337 8c0-4.417969-3.582031-8-8-8h-321c-4.417969 0-8 3.582031-8 8v377c0 4.417969 3.582031 8 8 8h321c4.417969 0 8-3.582031 8-8zm-321 8h304v362h-304zm0 0"/><path d="m304 53c0-4.417969-3.582031-8-8-8h-257c-4.417969 0-8 3.582031-8 8v120c0 4.417969 3.582031 8 8 8h257c4.417969 0 8-3.582031 8-8zm-155.359375 60.335938-101.640625 47.308593v-94.617187zm-73.09375-52.335938h184.90625l-92.453125 43.03125zm92.453125 60.96875 92.453125 43.03125h-184.90625zm19.359375-8.632812 101.640625-47.308594v94.617187zm0 0"/><path d="m39.398438 231h157.203124c4.417969 0 8-3.582031 8-8s-3.582031-8-8-8h-157.203124c-4.417969 0-8 3.582031-8 8s3.582031 8 8 8zm0 0"/><path d="m296.601562 265h-257.203124c-4.417969 0-8 3.582031-8 8s3.582031 8 8 8h257.203124c4.417969 0 8-3.582031 8-8s-3.582031-8-8-8zm0 0"/><path d="m296.601562 315h-257.203124c-4.417969 0-8 3.582031-8 8s3.582031 8 8 8h257.203124c4.417969 0 8-3.582031 8-8s-3.582031-8-8-8zm0 0"/></svg>