<svg xmlns="http://www.w3.org/2000/svg" width="466" height="423.9">
  <path fill-rule="evenodd" clip-rule="evenodd" d="M242.1 168.5h47.2v48.2H313a103.4 103.4 0 0 0 48.7-12.7 59.1 59.1 0 0 1-11-30.5c-1.4-14.7 1.6-33.8 11.5-45.4l5-5.7 5.9 4.8c14.8 12 27.3 28.6 29.5 47.6a72 72 0 0 1 54.7 5.1l6.5 3.7-3.4 6.7c-13.3 26-41.2 34.1-68.5 32.7-40.8 101.6-129.7 149.8-237.4 149.8-55.7 0-106.8-20.8-135.9-70.2l-.4-.8-4.3-8.6a136.7 136.7 0 0 1-10.9-69.4l.7-7.1h40.3v-48.2h47.2v-47.2h94.3V74.2H242v94.3z"/>
  <g fill-rule="evenodd" clip-rule="evenodd" fill="#FFF">
    <path d="M86.2 179.7h3.2v34.1h-3.2v-34zm-6.2 0h3.4v34.1H80v-34zm-6.2 0h3.4v34.1h-3.4v-34zm-6.2 0H71v34.1h-3.4v-34zm-6.2 0h3.4v34.1h-3.4v-34zm-6 0h3.2v34.1h-3.2v-34zm-3.4-3.4h40.8v40.9H52v-40.9zM133.4 132.6h3.2v34h-3.2v-34zm-6.2 0h3.3v34h-3.3v-34zm-6.2 0h3.3v34H121v-34zm-6.2 0h3.3v34h-3.3v-34zm-6.2 0h3.3v34h-3.3v-34zm-6 0h3.2v34h-3.3v-34zm-3.5-3.4H140V170H99v-41zM133.4 179.7h3.2v34.1h-3.2v-34zm-6.2 0h3.3v34.1h-3.3v-34zm-6.2 0h3.3v34.1H121v-34zm-6.2 0h3.3v34.1h-3.3v-34zm-6.2 0h3.3v34.1h-3.3v-34zm-6 0h3.2v34.1h-3.3v-34zm-3.5-3.4H140v40.9H99v-40.9zM180.5 179.7h3.2v34.1h-3.2v-34zm-6.2 0h3.4v34.1h-3.4v-34zm-6.2 0h3.4v34.1H168v-34zm-6.2 0h3.4v34.1h-3.4v-34zm-6.2 0h3.4v34.1h-3.4v-34zm-6 0h3.2v34.1h-3.2v-34zm-3.4-3.4H187v40.9h-40.8v-40.9zM180.5 132.6h3.2v34h-3.2v-34zm-6.2 0h3.4v34h-3.4v-34zm-6.2 0h3.4v34H168v-34zm-6.2 0h3.4v34h-3.4v-34zm-6.2 0h3.4v34h-3.4v-34zm-6 0h3.2v34h-3.2v-34zm-3.4-3.4H187V170h-40.8v-41zM227.6 179.7h3.3v34.1h-3.3v-34zm-6.1 0h3.3v34.1h-3.3v-34zm-6.2 0h3.3v34.1h-3.3v-34zm-6.2 0h3.3v34.1h-3.3v-34zm-6.2 0h3.3v34.1H203v-34zm-6 0h3.1v34.1h-3.2v-34zm-3.5-3.4h40.9v40.9h-40.9v-40.9zM227.6 132.6h3.3v34h-3.3v-34zm-6.1 0h3.3v34h-3.3v-34zm-6.2 0h3.3v34h-3.3v-34zm-6.2 0h3.3v34h-3.3v-34zm-6.2 0h3.3v34H203v-34zm-6 0h3.1v34h-3.2v-34zm-3.5-3.4h40.9V170h-40.9v-41zM227.6 85.5h3.3v34h-3.3v-34zm-6.1 0h3.3v34h-3.3v-34zm-6.2 0h3.3v34h-3.3v-34zm-6.2 0h3.3v34h-3.3v-34zm-6.2 0h3.3v34H203v-34zm-6 0h3.1v34h-3.2v-34zm-3.5-3.5h40.9v41h-40.9V82zM274.8 179.7h3.2v34.1h-3.2v-34zm-6.2 0h3.4v34.1h-3.4v-34zm-6.2 0h3.4v34.1h-3.4v-34zm-6.2 0h3.4v34.1h-3.4v-34zm-6.2 0h3.4v34.1H250v-34zm-6 0h3.2v34.1H244v-34zm-3.4-3.4h40.8v40.9h-40.8v-40.9z"/>
  </g>
  <path fill-rule="evenodd" clip-rule="evenodd" fill="#FFF" d="M137.4 283.4a11.3 11.3 0 1 1 0 22.6 11.3 11.3 0 0 1 0-22.6"/>
  <path fill-rule="evenodd" clip-rule="evenodd" d="M137.4 286.6c1 0 2 .2 3 .6a3.3 3.3 0 1 0 4.5 4.4 8 8 0 1 1-7.5-5"/>
  <path fill="#FFF" d="M167.4 364.7c-28-13.3-43.2-31.3-51.8-51-10.3 3-22.8 5-37.3 5.7a306.9 306.9 0 0 1-39.1-.1c25.6 25.6 57 45.3 115.4 45.6 4.3 0 8.5 0 12.8-.2z"/>
</svg>
