<?xml version="1.0" encoding="iso-8859-1"?>
<!-- Generator: Adobe Illustrator 19.0.0, SVG Export Plug-In . SVG Version: 6.00 Build 0)  -->
<svg version="1.1" id="Capa_1" xmlns="http://www.w3.org/2000/svg" xmlns:xlink="http://www.w3.org/1999/xlink" x="0px" y="0px"
	 viewBox="0 0 511.999 511.999" style="enable-background:new 0 0 511.999 511.999;" xml:space="preserve">
<g>
	<g>
		<path d="M477.675,127.969c-3.276-5.655-4.928-5.78-32.648-21.784c-3.581-2.067-8.157-0.84-10.222,2.739
			c-2.066,3.579-0.84,8.156,2.739,10.222l21.781,12.575l-58.977,34.05c-0.87-0.757,2.523,1.293-57.656-33.451l56.478-32.607
			c0.752-0.434,1.393-0.984,1.929-1.607l14.683,8.477c3.58,2.067,8.156,0.841,10.222-2.739c2.066-3.579,0.84-8.156-2.739-10.222
			L265.52,2.544c-5.874-3.391-13.169-3.391-19.039,0C25.157,130.324,37.879,121.822,34.323,127.972
			c-3.651,6.313-2.555-8.579-2.555,246.466c0,6.78,3.647,13.098,9.518,16.485L246.48,509.391c2.89,1.669,6.181,2.551,9.518,2.551
			c7.287,0-6.238,6.546,214.71-121.018c5.874-3.388,9.523-9.705,9.523-16.487C480.232,119.54,481.327,134.268,477.675,127.969z
			 M328.518,56.199L386.56,89.71l-58.835,33.968l-57.799-33.37l57.096-32.964C327.582,57.022,328.077,56.632,328.518,56.199z
			 M312.759,132.319l-57.798,33.37l-57.798-33.37l57.798-33.37L312.759,132.319z M253.966,15.506
			c0.235-0.138,0.485-0.24,0.739-0.325c1.094-0.366,2.31-0.263,3.33,0.324l55.761,32.194L254.96,81.668L197.163,48.3L253.966,15.506
			z M182.239,56.915c0.21,0.153,0.429,0.296,0.66,0.429l57.096,32.964l-57.798,33.37l-57.797-33.369L182.239,56.915z
			 M109.573,98.869c0.87,0.757-2.524-1.293,57.656,33.451c-0.508,0.293-56.248,32.465-56.743,32.779l-57.814-33.38L109.573,98.869z
			 M46.735,145.574l57.28,33.07v66.136l-57.28-33.071V145.574z M104.015,409.858l-55.247-31.897
			c-1.254-0.723-2.033-2.073-2.033-3.523v-62.353l57.28,33.07V409.858z M176.266,451.572l-57.284-33.073v-64.703l57.284,33.074
			V451.572z M176.266,369.588l-57.284-33.073v-24.599c0-4.133-3.35-7.483-7.483-7.483s-7.483,3.351-7.483,7.483v15.959
			l-57.28-33.071v-65.812l57.28,33.07v23.413c0,4.133,3.35,7.483,7.483,7.483s7.483-3.351,7.483-7.483v-14.772l57.284,33.073
			V369.588z M176.266,286.494l-57.284-33.073v-66.136l57.284,33.073V286.494z M125.437,173.73l56.759-32.769l57.798,33.37
			L183.235,207.1L125.437,173.73z M191.233,228.999l55.249,31.898c0.346,0.2,0.699,0.387,1.057,0.565
			c0.114,0.056,0.229,0.105,0.343,0.16c0.211,0.099,0.419,0.202,0.633,0.293v66.293l-57.282-33.072L191.233,228.999L191.233,228.999
			z M248.515,493.285l-57.312-33.089c0.016-0.195,0.03-0.389,0.03-0.589v-64.096l57.282,33.072V493.285z M248.516,411.301
			l-57.282-33.072v-65.812l57.282,33.072V411.301z M253.965,247.934l-55.763-32.194l56.759-32.769l57.798,33.37l-54.719,31.592
			C256.799,248.647,255.199,248.647,253.965,247.934z M263.483,327.88v-65.973c0.695-0.297,1.378-0.631,2.036-1.011l55.248-31.898
			v65.809L263.483,327.88z M320.767,312.09v65.813l-57.284,33.071v-65.812L320.767,312.09z M263.483,493.286v-65.03l57.284-33.072
			c0,0.592-0.016,64.422,0.03,65.012L263.483,493.286z M269.926,174.33l57.798-33.37l57.798,33.37l-57.798,33.37L269.926,174.33z
			 M393.014,418.501l-57.28,33.071v-65.029l57.28-33.07V418.501z M393.014,336.192l-57.28,33.069v-65.812l57.28-33.07V336.192z
			 M393.014,253.096l-57.28,33.07v-65.809l57.28-33.07V253.096z M465.265,374.439c0,1.449-0.779,2.798-2.036,3.523L407.98,409.86
			v-65.028l57.284-33.072V374.439z M465.265,294.477l-57.284,33.073v-65.813l57.284-33.072V294.477z M465.265,211.383
			l-57.284,33.072v-65.809l57.284-33.073V211.383z"/>
	</g>
</g>
<g>
</g>
<g>
</g>
<g>
</g>
<g>
</g>
<g>
</g>
<g>
</g>
<g>
</g>
<g>
</g>
<g>
</g>
<g>
</g>
<g>
</g>
<g>
</g>
<g>
</g>
<g>
</g>
<g>
</g>
</svg>
