<svg height="472pt" viewBox="0 -9 472.00021 472" width="472pt" xmlns="http://www.w3.org/2000/svg"><path d="m472 110.425781v-102.652343c-.011719-2.097657-.863281-4.101563-2.367188-5.566407-1.507812-1.460937-3.535156-2.253906-5.632812-2.20312475h-456c-2.097656-.05468745-4.128906.74218775-5.632812 2.20312475-1.503907 1.460938-2.3593755 3.46875-2.367188 5.566407v380.914062c-.0234375 4.480469 3.523438 8.167969 8 8.316406h113v49.226563c-.027344 2.082031.792969 4.085937 2.273438 5.550781 1.476562 1.464844 3.488281 2.265625 5.570312 2.222656h214.3125c2.082031.042969 4.09375-.757812 5.570312-2.222656 1.480469-1.464844 2.300782-3.46875 2.273438-5.550781v-49.226563h113c4.476562-.152344 8.023438-3.835937 8-8.316406v-278.105469c0-.027343 0-.050781 0-.078125s0-.050781 0-.078125zm-16-94.421875v87h-440v-87zm-121 422h-198v-236h198zm16-57v-186.882812c.039062-2.117188-.765625-4.164063-2.234375-5.6875-1.472656-1.523438-3.492187-2.398438-5.609375-2.429688h-214.3125c-2.117188.03125-4.136719.90625-5.605469 2.429688-1.472656 1.523437-2.277343 3.570312-2.238281 5.6875v186.882812h-105v-262h440v262zm0 0"/><path d="m123.308594 88.261719c15.972656 0 28.96875-13.453125 28.96875-29.992188 0-16.539062-12.996094-29.992187-28.96875-29.992187-15.96875 0-28.964844 13.453125-28.964844 29.992187 0 16.539063 12.996094 29.992188 28.964844 29.992188zm0-43.984375c7.152344 0 12.96875 6.277344 12.96875 13.992187 0 7.714844-5.816406 13.992188-12.96875 13.992188-7.148438 0-12.964844-6.277344-12.964844-13.992188 0-7.714843 5.816406-13.992187 12.964844-13.992187zm0 0"/><path d="m191.449219 88.261719c15.972656 0 28.964843-13.453125 28.964843-29.992188 0-16.539062-12.992187-29.992187-28.964843-29.992187-15.972657 0-28.96875 13.453125-28.96875 29.992187 0 16.539063 12.996093 29.992188 28.96875 29.992188zm0-43.984375c7.148437 0 12.964843 6.277344 12.964843 13.992187 0 7.714844-5.816406 13.992188-12.964843 13.992188-7.152344 0-12.96875-6.277344-12.96875-13.992188 0-7.714843 5.820312-13.992187 12.96875-13.992187zm0 0"/><path d="m55.171875 88.261719c15.972656 0 28.964844-13.453125 28.964844-29.992188 0-16.539062-12.992188-29.992187-28.964844-29.992187s-28.964844 13.453125-28.964844 29.992187c0 16.539063 12.992188 29.992188 28.964844 29.992188zm0-43.984375c7.148437 0 12.964844 6.277344 12.964844 13.992187 0 7.714844-5.816407 13.992188-12.964844 13.992188s-12.964844-6.277344-12.964844-13.992188c0-7.714843 5.816407-13.992187 12.964844-13.992187zm0 0"/><path d="m330 224.003906c0-4.417968-3.582031-8-8-8h-172c-4.417969 0-8 3.582032-8 8v80c0 4.417969 3.582031 8 8 8h172c4.417969 0 8-3.582031 8-8zm-74.9375 40.292969 58.9375-27.433594v54.863281zm30.6875 31.707031h-99.5l49.75-23.15625zm-49.75-40.847656-49.746094-23.152344h99.5zm-19.0625 9.140625-58.9375 27.429687v-54.863281zm0 0"/><path d="m150.105469 346.003906h105c4.417969 0 8-3.582031 8-8 0-4.417968-3.582031-8-8-8h-105c-4.417969 0-8 3.582032-8 8 0 4.417969 3.582031 8 8 8zm0 0"/><path d="m150.105469 379.003906h171.792969c4.421874 0 8-3.582031 8-8 0-4.417968-3.578126-8-8-8h-171.792969c-4.417969 0-8 3.582032-8 8 0 4.417969 3.582031 8 8 8zm0 0"/><path d="m150.105469 412.003906h171.792969c4.421874 0 8-3.582031 8-8 0-4.417968-3.578126-8-8-8h-171.792969c-4.417969 0-8 3.582032-8 8 0 4.417969 3.582031 8 8 8zm0 0"/></svg>